<svg width="1920" height="1080" viewBox="0 0 1920 1080" fill="none" xmlns="http://www.w3.org/2000/svg">
<g clip-path="url(#clip0_4046_2)">
<rect width="1920" height="1080" fill="#FFCEAC"/>
<path d="M1329 1086.6C1329.73 1001.85 1330.6 917.108 1373.99 860.611C1417.24 803.968 1503.3 775.72 1562.27 729.27C1621.39 682.965 1653.42 618.605 1708.46 576.669C1763.5 534.878 1841.55 515.366 1919.6 496L1919.6 1086.6L1329 1086.6Z" fill="#FFB800"/>
<path d="M405.6 0C373.3 43 340.9 86 323.4 133.9C305.8 181.8 303 234.6 277.9 277.9C252.8 321.2 205.3 355 155.2 374.7C105.2 394.5 52.6001 400 7.38234e-05 405.6L9.15527e-05 -1.77293e-05L405.6 0Z" fill="#FFB800"/>
</g>
<defs>
<clipPath id="clip0_4046_2">
<rect width="1920" height="1080" fill="white"/>
</clipPath>
</defs>
</svg>
