<svg width="85" height="85" viewBox="0 0 85 85" fill="none" xmlns="http://www.w3.org/2000/svg">
<path d="M17.5 31.7589C21.7392 37.0133 20.2594 44.5949 23.9179 50.0029C27.2882 54.985 32.2791 51.0913 36.6429 50.6442C41.1765 50.1796 45.4446 54.1201 50.2042 51.581C54.48 49.3001 56.8828 47.4242 61.4869 47.9479C68.2205 48.7139 68.608 42.3303 64.6302 37.2054C59.9802 31.2144 69.7902 27.3604 66.9866 20.8386C64.6859 15.4868 58.3941 16.613 53.6631 16.388C47.8323 16.1106 40.8948 9.52834 36.0184 17.2396C33.5777 21.0992 32.7353 25.3025 28.3214 28.4145C22.2844 32.6708 28.7343 36.4795 35.3926 36.5774C38.6659 36.6255 38.8295 41.6748 42.3741 41.5561" stroke="#FFB800" stroke-linecap="round"/>
<path d="M49.3569 29.1628C51.8874 32.6066 52.8133 37.0004 51.3039 41.2054C49.8079 45.3731 48.1287 50.1007 51.3905 54.1283C54.6023 58.0942 52.0831 62.5839 51.6059 67.3013C51.3817 69.5174 51.1827 72.2008 51.9529 74.088" stroke="#FFB800" stroke-linecap="round"/>
<path d="M42.6502 44.2256C37.6483 42.0986 31.1706 40.8121 28.679 34.7774C26.6842 29.9462 26.9534 24.8624 29.1352 20.6403C32.0103 15.0766 38.6965 11.4628 44.6415 10.972C50.2628 10.5079 55.2524 12.7483 59.3509 17.0985C63.9265 21.9549 65.0718 28.4231 65.2561 35.0014C65.4088 40.4534 62.9084 45.1161 59.0331 49.6188C54.8468 54.4828 49.2307 55.7774 42.6527 55.3927C36.5483 55.0356 30.8512 51.959 27.5244 46.6299C25.5264 43.4294 23.3777 40.2096 22.2542 36.5771" stroke="#F95602" stroke-width="2" stroke-linecap="round" stroke-linejoin="round"/>
<path d="M47.9814 27.3601V70.1219" stroke="#F95602" stroke-width="2" stroke-linecap="round" stroke-linejoin="round"/>
</svg>
