<svg id="visual" viewBox="0 0 900 600" width="900" height="600" xmlns="http://www.w3.org/2000/svg" xmlns:xlink="http://www.w3.org/1999/xlink" version="1.1"><rect x="0" y="0" width="900" height="600" fill="#FFCEAC"></rect><defs><linearGradient id="grad1_0" x1="33.3%" y1="0%" x2="100%" y2="100%"><stop offset="20%" stop-color="#ffceac" stop-opacity="1"></stop><stop offset="80%" stop-color="#ffceac" stop-opacity="1"></stop></linearGradient></defs><defs><linearGradient id="grad2_0" x1="0%" y1="0%" x2="66.7%" y2="100%"><stop offset="20%" stop-color="#ffceac" stop-opacity="1"></stop><stop offset="80%" stop-color="#ffceac" stop-opacity="1"></stop></linearGradient></defs><g transform="translate(900, 0)"><path d="M0 405.6C-58.2 405.1 -116.4 404.5 -155.2 374.7C-194.1 345 -213.5 285.9 -245.4 245.4C-277.2 204.8 -321.4 182.8 -350.2 145C-378.9 107.2 -392.3 53.6 -405.6 0L0 0Z" fill="#FFB800"></path></g><g transform="translate(0, 600)"><path d="M0 -405.6C43 -373.3 86 -340.9 133.9 -323.4C181.8 -305.8 234.6 -303 277.9 -277.9C321.2 -252.8 355 -205.3 374.7 -155.2C394.5 -105.2 400 -52.6 405.6 0L0 0Z" fill="#FFB800"></path></g></svg>