<svg width="70" height="84" viewBox="0 0 70 84" fill="none" xmlns="http://www.w3.org/2000/svg">
<path d="M10 30.847C14.2392 36.1015 12.7594 43.6831 16.4179 49.0911C19.7882 54.0731 24.7791 50.1795 29.1429 49.7323C33.6765 49.2678 37.9446 53.2082 42.7042 50.6692C46.98 48.3883 49.3828 46.5123 53.9869 47.036C60.7205 47.802 61.108 41.4184 57.1302 36.2935C52.4802 30.3025 62.2902 26.4485 59.4866 19.9267C57.1859 14.5749 50.8941 15.7012 46.1631 15.4761C40.3323 15.1987 33.3948 8.61648 28.5184 16.3277C26.0777 20.1873 25.2353 24.3906 20.8214 27.5027C14.7844 31.759 21.2343 35.5677 27.8926 35.6655C31.1659 35.7136 31.3295 40.763 34.8741 40.6442" stroke="#FFB800" stroke-linecap="round"/>
<path d="M41.8567 28.251C44.3872 31.6948 45.3131 36.0886 43.8037 40.2935C42.3077 44.4612 40.6285 49.1889 43.8902 53.2164C47.1021 57.1824 44.5829 61.672 44.1056 66.3894C43.8815 68.6055 43.6825 71.2889 44.4527 73.1761" stroke="#FFB800" stroke-linecap="round"/>
<path d="M35.1502 43.3138C30.1483 41.1867 23.6706 39.9002 21.179 33.8656C19.1842 29.0343 19.4534 23.9505 21.6352 19.7285C24.5103 14.1648 31.1965 10.5509 37.1415 10.0601C42.7628 9.59602 47.7524 11.8365 51.8509 16.1866C56.4265 21.0431 57.5718 27.5113 57.7561 34.0895C57.9088 39.5415 55.4084 44.2042 51.5331 48.7069C47.3468 53.571 41.7307 54.8656 35.1527 54.4808C29.0483 54.1237 23.3512 51.0471 20.0244 45.718C18.0264 42.5175 15.8777 39.2977 14.7542 35.6652" stroke="#F95602" stroke-width="2" stroke-linecap="round" stroke-linejoin="round"/>
<path d="M40.4812 26.4482V69.21" stroke="#F95602" stroke-width="2" stroke-linecap="round" stroke-linejoin="round"/>
</svg>
