<svg width="494" height="634" viewBox="0 0 494 634" fill="none" xmlns="http://www.w3.org/2000/svg">
<path d="M203.768 43.2238C212.864 26.6883 236.832 16.3629 253.945 32.6507C271.599 49.4537 274.396 74.3564 282.214 95.694C293.993 127.848 296.259 170.013 326.893 189.268C340.385 197.749 378.014 188.171 357.023 215.7" stroke="#FFCEAC" stroke-width="5.3" stroke-linecap="round" stroke-linejoin="round"/>
<path d="M204.613 23.9689C217.353 4.061 246.422 0.907507 268.17 3.36897C294.71 6.37289 317.998 22.6086 331.975 44.9339C347.6 69.891 355.878 98.8444 360.694 127.537C365.15 154.087 364.683 181.149 361.574 207.611L358.899 211.683" stroke="#FFCEAC" stroke-width="5.3" stroke-linecap="round" stroke-linejoin="round"/>
<path d="M274.777 29.8467C277.911 31.4522 291.651 45.8889 298.775 54.5043C308.294 66.0164 314.19 79.4433 319.783 93.3769C328.154 114.236 330.401 136.796 336.751 158.257C340.183 169.853 352.797 176.089 362.205 181.928" stroke="#FFCEAC" stroke-width="5.3" stroke-linecap="round" stroke-linejoin="round"/>
<path d="M198.369 48.2139C193.725 49.0691 184.292 61.2872 181.838 70.9894C176.976 90.2112 180.715 110.755 173.022 129.03C165.89 145.97 149.242 155.92 140.875 171.978C133.707 185.733 124.63 198.016 124.899 214.255" stroke="#FFCEAC" stroke-width="5.3" stroke-linecap="round" stroke-linejoin="round"/>
<path d="M195.43 34.2549C179.692 35.05 170.035 49.9179 162.762 62.0237C154.448 75.8645 151.059 91.9575 142.515 105.588C133.421 120.094 134.739 137.627 131.433 153.905C127.936 171.12 132.657 189.945 126.369 206.173C125.466 208.503 126.535 211.491 124.899 213.52" stroke="#FFCEAC" stroke-width="5.3" stroke-linecap="round" stroke-linejoin="round"/>
<path d="M343.103 201.397C354.482 236.048 318.614 262.779 352.27 301.795C376.791 330.221 380.996 370.976 362.469 404.082C338.638 446.668 383.466 476.471 381.476 518.557C380.776 533.375 373.829 546.59 368.083 559.928" stroke="#FFCEAC" stroke-width="5.3" stroke-linecap="round" stroke-linejoin="round"/>
<path d="M314.45 238.867C311.723 266.368 313.06 283.15 325.663 313.042C341.612 350.871 296.14 364.402 274.97 384.546C239.117 418.66 274.489 454.983 287.087 490.842C300.792 529.854 266.413 561.363 270.004 600.481C271.085 612.256 277.203 621.03 282.123 631.193" stroke="#FFCEAC" stroke-width="5.3" stroke-linecap="round" stroke-linejoin="round"/>
<path d="M299.022 278.541C284.197 307.975 260.39 336.386 267.784 372.2C273.08 397.854 291.955 429.78 275.385 451.095C253.437 479.33 244.69 516.192 241.448 551.366C239.832 568.9 243.34 584.991 248.328 601.806" stroke="#FFCEAC" stroke-width="5.3" stroke-linecap="round" stroke-linejoin="round"/>
<path d="M341.634 338.785C347.766 366.065 337.06 390.072 328.409 417.397C321.641 438.777 317.669 462.169 321.086 484.147C326.214 517.123 337.671 548.873 342.293 581.854C344.146 595.08 339.768 606.852 335.022 618.704" stroke="#FFCEAC" stroke-width="5.3" stroke-linecap="round" stroke-linejoin="round"/>
<path d="M305.634 594.459C311.461 578.874 311.658 562.371 313.503 545.862C317.11 513.577 300.632 484.118 298.52 452.21C297.029 429.682 295.946 403.894 309.039 386.45C311.36 383.358 313.946 380.477 316.654 377.724" stroke="#FFCEAC" stroke-width="5.3" stroke-linecap="round" stroke-linejoin="round"/>
<path d="M355.593 241.806C355.457 243.857 353.966 266.723 363.389 278.079C376.018 293.299 384.688 304.631 396.736 325.561C408.286 345.625 376.852 363.964 385.665 381.86C393.291 397.347 401.946 413.717 393.912 435.517C392.588 439.11 391.715 445.197 390.124 447.58" stroke="#FFCEAC" stroke-width="5.3" stroke-linecap="round" stroke-linejoin="round"/>
<path d="M133.715 214.622C161.955 236.19 167.267 274.03 166.153 308.062C165.41 330.78 179.082 348.867 180.447 372.014C181.654 392.477 180.702 411.071 174.839 432.102C173.628 436.445 172.321 440.803 171.919 445.316" stroke="#FFCEAC" stroke-width="5.3" stroke-linecap="round" stroke-linejoin="round"/>
<path d="M119.022 230.051C109.907 263.085 101.579 306.159 130.042 330.704C157.183 354.108 160.65 387.385 165.984 421.489C171.24 455.083 168.148 489.608 151.434 519.049C134.593 548.715 109.623 584.179 114.614 619.439" stroke="#FFCEAC" stroke-width="5.3" stroke-linecap="round" stroke-linejoin="round"/>
<path d="M102.124 317.479C91.0383 338.901 79.7522 359.677 78.7003 386.089C77.2806 421.737 112.339 457.973 92.5082 490.588C76.4372 517.019 70.7956 547.726 62.8199 577.173C60.0892 587.255 58.7282 597.504 57.3074 607.683" stroke="#FFCEAC" stroke-width="5.3" stroke-linecap="round" stroke-linejoin="round"/>
<path d="M117.552 387.275C127.584 413.159 143.333 442.121 134.45 468.826C129.045 485.077 119.062 499.347 110.426 514.186C104.551 524.279 103.37 536.222 98.4502 546.703" stroke="#FFCEAC" stroke-width="5.3" stroke-linecap="round" stroke-linejoin="round"/>
<path d="M157.96 168.336C160.308 191.298 162.825 214.141 173.178 235.83C181.29 252.825 187.677 270.963 190.287 289.561C192.793 307.414 190.175 325.496 191.189 343.474C191.708 352.655 194.511 361.934 193.226 371.112" stroke="#FFCEAC" stroke-width="5.3" stroke-linecap="round" stroke-linejoin="round"/>
<path d="M322.532 201.397C317.278 214.567 312.2 228.184 307.103 241.071C301.115 256.214 292.493 269.328 279.304 279.582C267.474 288.779 251.893 290.851 237.675 289.193C216.168 286.685 201.835 269.897 186.806 256.068C177.721 247.709 173.926 236.138 169.348 225.275" stroke="#FFCEAC" stroke-width="5.3" stroke-linecap="round" stroke-linejoin="round"/>
<path d="M226.107 139.073C222.719 135.511 218.712 131.433 213.762 130.639C204.891 129.215 195.059 130.177 187.668 135.348C186.516 136.154 185.445 137.151 184.806 138.423" stroke="#FFCEAC" stroke-width="5.3" stroke-linecap="round" stroke-linejoin="round"/>
<path d="M214.678 135.436C214.631 138.784 214.802 143.764 211.421 145.093C208.042 146.42 203.663 147.314 200.651 145.307C198.134 143.629 197.724 140.306 196.664 137.693C195.472 134.756 198.944 132.465 201.725 132.203C205.848 131.816 209.844 132.575 213.938 134.206C214.804 134.551 214.621 135.743 214.937 136.475" fill="#FFCEAC"/>
<path d="M214.678 135.436C214.631 138.784 214.802 143.764 211.421 145.093C208.042 146.42 203.663 147.314 200.651 145.307C198.134 143.629 197.724 140.306 196.664 137.693C195.472 134.756 198.944 132.465 201.725 132.203C205.848 131.816 209.844 132.575 213.938 134.206C214.804 134.551 214.621 135.743 214.937 136.475" stroke="#FFCEAC" stroke-width="5.3" stroke-linecap="round" stroke-linejoin="round"/>
<path d="M291.045 133.877C287.976 134.62 284.941 134.262 281.715 134.923C279.186 135.442 276.931 136.46 274.624 137.669C271.758 139.171 268.575 140.511 266.628 143.229" stroke="#FFCEAC" stroke-width="5.3" stroke-linecap="round" stroke-linejoin="round"/>
<path d="M280.915 138.293C279.813 140.565 279.172 143.539 280.933 145.938C282.401 147.938 284.768 149.746 287.327 148.788C289.84 147.846 293.842 147.935 294.373 144.61C294.748 142.263 295.085 139.087 292.193 138.082C289.266 137.066 286.049 136.857 283.033 137.321C282.255 137.441 281.509 137.773 280.915 138.293Z" fill="#FFCEAC" stroke="#FFCEAC" stroke-width="5.3" stroke-linecap="round" stroke-linejoin="round"/>
<path d="M390.791 304.016C403.373 308.853 416.885 310.948 429.446 316.919C441.27 322.54 452.242 328.863 461.8 338.18C472.338 348.452 479.552 361.2 485.824 375.513C489.58 384.086 485.164 394.539 490.536 402.722" stroke="#FFCEAC" stroke-width="5.3" stroke-linecap="round" stroke-linejoin="round"/>
<path d="M90.5155 309.211C72.8552 308.776 56.2084 316.304 40.9758 324.286C32.5178 328.718 24.6231 334.282 17.548 340.802C12.0428 345.875 6.82529 351.114 2.65039 357.342" stroke="#FFCEAC" stroke-width="5.3" stroke-linecap="round" stroke-linejoin="round"/>
<path d="M231.571 117.649C229.057 114.149 225.318 111.668 221.528 109.784C218.08 108.07 214.381 106.894 210.682 105.861" fill="#FFCEAC"/>
<path d="M231.571 117.649C229.057 114.149 225.318 111.668 221.528 109.784C218.08 108.07 214.381 106.894 210.682 105.861" stroke="#FFCEAC" stroke-width="5.3" stroke-linecap="round" stroke-linejoin="round"/>
<path d="M225.587 121.02C220.509 116.987 214.46 114.811 208.242 112.48C204.207 110.968 200.029 109.963 195.741 109.531L195.326 109.461" fill="#FFCEAC"/>
<path d="M225.587 121.02C220.509 116.987 214.46 114.811 208.242 112.48C204.207 110.968 200.029 109.963 195.741 109.531L195.326 109.461" stroke="#FFCEAC" stroke-width="5.3" stroke-linecap="round" stroke-linejoin="round"/>
<path d="M206.885 119.461C201.96 117.255 196.644 116.202 191.457 114.8C189.204 114.191 186.889 113.741 184.546 113.747" fill="#FFCEAC"/>
<path d="M206.885 119.461C201.96 117.255 196.644 116.202 191.457 114.8C189.204 114.191 186.889 113.741 184.546 113.747" stroke="#FFCEAC" stroke-width="5.3" stroke-linecap="round" stroke-linejoin="round"/>
<path d="M285.85 109.461C282.71 110.478 279.761 111.966 277.062 113.946C276.394 114.436 275.711 114.908 275.07 115.435" fill="#FFCEAC"/>
<path d="M285.85 109.461C282.71 110.478 279.761 111.966 277.062 113.946C276.394 114.436 275.711 114.908 275.07 115.435" stroke="#FFCEAC" stroke-width="5.3" stroke-linecap="round" stroke-linejoin="round"/>
<path d="M271.287 226.744C264.693 225.827 260.559 220.405 254.223 218.067C249.179 216.206 247.1 218.015 241.164 215.908C234.285 213.465 228.34 218.174 221.966 219.72C217.99 220.685 214.479 222.999 210.307 223.071" stroke="#FFCEAC" stroke-width="5.3" stroke-linecap="round" stroke-linejoin="round"/>
<path d="M253.93 232.989C251.047 233.43 248.147 233.936 245.198 233.865C241.412 233.775 237.513 233.527 234.01 231.984L233.542 231.887" stroke="#FFCEAC" stroke-width="5.3" stroke-linecap="round" stroke-linejoin="round"/>
<path d="M252.185 191.112C253.337 189.378 255.498 188.49 257.458 188.304C258.793 188.177 260.266 186.889 261.464 187.756C262.14 188.244 262.442 189.071 263.022 189.642" stroke="#FFCEAC" stroke-width="5.3" stroke-linecap="round" stroke-linejoin="round"/>
<path d="M230.511 190.561C231.985 188.881 234.455 188.116 236.648 188.476C238.324 188.75 239.205 190.377 240.062 191.663" stroke="#FFCEAC" stroke-width="5.3" stroke-linecap="round" stroke-linejoin="round"/>
<path d="M266.695 329.602C259.305 340.199 245.286 342.845 233.275 344.289C224.372 345.36 214.84 346.256 206.655 343.785C201.866 342.339 197.887 338.657 194.695 336.581" stroke="#FFCEAC" stroke-width="5.3" stroke-linecap="round" stroke-linejoin="round"/>
</svg>
